# xmcd CD database file
#
# Track frame offsets:
#	150
#	19654
#	41311
#	58603
#	81494
#
# Disc length: 1376 seconds
#
# Revision: 0
# Processed by: cddbd v1.5.1PL2 Copyright (c) Steve Scherf et al.
# Submitted via: CDex 1.50
#
DISCID=35055e05
DTITLE=Alma - Grad Lludje Koje Projage - L'île des gens qui passent
DYEAR=2005
DGENRE=Salsa
TTITLE0=Dubarquement
TTITLE1=Accords et contretemps
TTITLE2=Otis
TTITLE3=Ultimo Traigito
TTITLE4=Passeur (skank)
EXTD=YEAR: 2005
EXTT0=
EXTT1=
EXTT2=
EXTT3=
EXTT4=
PLAYORDER=
